<?xml version="1.0" encoding="UTF-8" standalone="no"?>
<!-- Created with Inkscape (http://www.inkscape.org/) -->

<svg
   width="64"
   height="64"
   viewBox="0 0 64 64"
   version="1.1"
   id="svg5"
   inkscape:version="1.4 (86a8ad7, 2024-10-11)"
   sodipodi:docname="dragon_tophat_64.svg"
   xmlns:inkscape="http://www.inkscape.org/namespaces/inkscape"
   xmlns:sodipodi="http://sodipodi.sourceforge.net/DTD/sodipodi-0.dtd"
   xmlns="http://www.w3.org/2000/svg"
   xmlns:svg="http://www.w3.org/2000/svg">
  <sodipodi:namedview
     id="namedview7"
     pagecolor="#505050"
     bordercolor="#eeeeee"
     borderopacity="1"
     inkscape:pageshadow="0"
     inkscape:pageopacity="0"
     inkscape:pagecheckerboard="0"
     inkscape:document-units="px"
     showgrid="true"
     inkscape:zoom="13.640625"
     inkscape:cx="38.084765"
     inkscape:cy="32"
     inkscape:window-width="2560"
     inkscape:window-height="1377"
     inkscape:window-x="1912"
     inkscape:window-y="-8"
     inkscape:window-maximized="1"
     inkscape:current-layer="layer1"
     inkscape:showpageshadow="0"
     inkscape:deskcolor="#d1d1d1">
    <inkscape:grid
       type="xygrid"
       id="grid950"
       spacingx="1"
       empspacing="16"
       originx="0"
       originy="0"
       spacingy="1"
       units="px" />
  </sodipodi:namedview>
  <defs
     id="defs2" />
  <g
     inkscape:label="Layer 1"
     inkscape:groupmode="layer"
     id="layer1">
    <path
       style="fill:#9c442f;fill-opacity:1;stroke:#000000;stroke-width:2;stroke-linecap:butt;stroke-linejoin:miter;stroke-miterlimit:4;stroke-dasharray:none;stroke-opacity:1"
       d="M 6.4726094,20.71693 C 10.912378,13.638504 17.464672,8.0456777 26,5 35.261943,1.6950429 44,2 54,7 c 5.380518,2.6902591 8.837382,13.71693 8.837382,13.71693 l -7.351928,18.83588 c 0,0 -10.46257,4.933257 -14.703853,2.354485 C 36,39 33,27 30.979031,23.071415 29.942633,21.056749 26.660716,25.59106 26.077746,27.780385 24.270635,34.566933 24.957451,42.966797 32,48 39.042549,53.033203 62.837382,46.616268 62.837382,46.616268 L 57.936096,63.097663 H 8.923251 c 0,0 -6.9534255,-13.724495 -7.3519263,-21.190368 C 1.1848999,34.667665 2.6203271,26.858713 6.4726094,20.71693 Z"
       id="path999"
       sodipodi:nodetypes="sssccssszcccss" />
    <path
       style="fill:#000000;fill-opacity:1;stroke:#000000;stroke-width:1;stroke-linecap:square;stroke-linejoin:miter;stroke-miterlimit:4;stroke-dasharray:none;stroke-opacity:1"
       d="m 36,23 3,5 h 7 l 1,-5 z"
       id="path2327"
       sodipodi:nodetypes="ccccc" />
    <path
       style="fill:#000000;fill-opacity:1;stroke:#000000;stroke-width:1;stroke-linecap:butt;stroke-linejoin:miter;stroke-miterlimit:4;stroke-dasharray:none;stroke-opacity:1"
       d="m 50,23 h 9 l -3,5 h -5 z"
       id="path2329"
       sodipodi:nodetypes="ccccc" />
    <path
       style="fill:#fefcfc;stroke:#000000;stroke-width:1;stroke-linecap:butt;stroke-linejoin:miter;stroke-miterlimit:4;stroke-dasharray:none;stroke-opacity:1;fill-opacity:1"
       d="m 54,34 -1,-1 -2,1 -2,-1 -2,1 -2,-1 -2,1 -2,-1 -1,1 -4,-6 4,10 1,-1 2,1 2,-1 2,1 2,-1 2,1 2,-1 1,1 5.161418,-7.86513 z"
       id="path5557"
       sodipodi:nodetypes="ccccccccccccccccccccc" />
    <path
       style="fill:none;stroke:#000000;stroke-width:1px;stroke-linecap:butt;stroke-linejoin:miter;stroke-opacity:1"
       d="M 30.979031,23.071415 36,23 h 11 3 9 3"
       id="path1" />
    <path
       style="fill:none;stroke:#000000;stroke-width:1px;stroke-linecap:butt;stroke-linejoin:miter;stroke-opacity:1"
       d="m 35,19 c 4,2.368461 8,3.368461 12,3 v -1"
       id="path2"
       sodipodi:nodetypes="ccc" />
    <path
       style="fill:none;stroke:#000000;stroke-width:1px;stroke-linecap:butt;stroke-linejoin:miter;stroke-opacity:1"
       d="M 60,19 C 56.666667,13.206567 53.333333,14.206567 50,22 L 49,21"
       id="path3"
       sodipodi:nodetypes="ccc" />
    <path
       style="fill:none;stroke:#000000;stroke-width:1px;stroke-linecap:butt;stroke-linejoin:miter;stroke-opacity:1"
       d="m 41,33 v 4"
       id="path4" />
    <path
       style="fill:none;stroke:#000000;stroke-width:1px;stroke-linecap:butt;stroke-linejoin:miter;stroke-opacity:1"
       d="m 45,33 v 4"
       id="path5" />
    <path
       style="fill:none;stroke:#000000;stroke-width:1px;stroke-linecap:butt;stroke-linejoin:miter;stroke-opacity:1"
       d="m 49,33 v 4"
       id="path6" />
    <path
       style="fill:none;stroke:#000000;stroke-width:1px;stroke-linecap:butt;stroke-linejoin:miter;stroke-opacity:1"
       d="m 53,33 v 4"
       id="path7" />
    <path
       style="fill:#6f4225;stroke:#000000;stroke-width:1px;stroke-linecap:butt;stroke-linejoin:miter;stroke-opacity:1;fill-opacity:1"
       d="m 32,38 8,-3 1,1 -7,6 c 0,0 -2,-1 -2,-4 z"
       id="path8" />
    <path
       style="fill:#bd3624;stroke:#000000;stroke-width:1px;stroke-linecap:butt;stroke-linejoin:miter;stroke-opacity:1;fill-opacity:1"
       d="m 32,38 c 0,0 4,0 2,4 -2,4 -5,-4 -2,-4 z"
       id="path9" />
    <ellipse
       style="fill:#000000;fill-opacity:1;stroke:#000000;stroke-linejoin:bevel"
       id="path10"
       cx="44.186161"
       cy="12.800466"
       rx="19.186159"
       ry="2.1995339" />
    <path
       style="fill:#000000;stroke:#000000;stroke-width:1px;stroke-linecap:butt;stroke-linejoin:miter;stroke-opacity:1;fill-opacity:1"
       d="M 33,13 V 1 h 24 v 12 z"
       id="path11" />
  </g>
</svg>
