<?xml version="1.0" encoding="UTF-8" standalone="no"?>
<!-- Created with Inkscape (http://www.inkscape.org/) -->

<svg
   width="64"
   height="64"
   viewBox="0 0 64 64"
   version="1.1"
   id="svg5"
   inkscape:version="1.4 (86a8ad7, 2024-10-11)"
   sodipodi:docname="dragon_64.svg"
   xmlns:inkscape="http://www.inkscape.org/namespaces/inkscape"
   xmlns:sodipodi="http://sodipodi.sourceforge.net/DTD/sodipodi-0.dtd"
   xmlns="http://www.w3.org/2000/svg"
   xmlns:svg="http://www.w3.org/2000/svg">
  <sodipodi:namedview
     id="namedview7"
     pagecolor="#505050"
     bordercolor="#eeeeee"
     borderopacity="1"
     inkscape:pageshadow="0"
     inkscape:pageopacity="0"
     inkscape:pagecheckerboard="0"
     inkscape:document-units="px"
     showgrid="true"
     inkscape:zoom="13.640625"
     inkscape:cx="34.455899"
     inkscape:cy="37.058419"
     inkscape:window-width="2560"
     inkscape:window-height="1377"
     inkscape:window-x="1912"
     inkscape:window-y="-8"
     inkscape:window-maximized="1"
     inkscape:current-layer="layer1"
     inkscape:showpageshadow="0"
     inkscape:deskcolor="#d1d1d1">
    <inkscape:grid
       type="xygrid"
       id="grid950"
       spacingx="1"
       empspacing="16"
       originx="0"
       originy="0"
       spacingy="1"
       units="px" />
  </sodipodi:namedview>
  <defs
     id="defs2" />
  <g
     inkscape:label="Layer 1"
     inkscape:groupmode="layer"
     id="layer1">
    <path
       style="fill:#9c442f;fill-opacity:1;stroke:#000000;stroke-width:2;stroke-linecap:butt;stroke-linejoin:miter;stroke-miterlimit:4;stroke-dasharray:none;stroke-opacity:1"
       d="M 6.4726094,20.71693 C 10.912378,13.638504 17.464672,8.0456777 26,5 35.261943,1.6950429 44,2 54,7 c 5.380518,2.6902591 8.837382,13.71693 8.837382,13.71693 l -7.351928,18.83588 c 0,0 -10.46257,4.933257 -14.703853,2.354485 C 36,39 33,27 30.979031,23.071415 29.942633,21.056749 26.660716,25.59106 26.077746,27.780385 24.270635,34.566933 24.957451,42.966797 32,48 39.042549,53.033203 62.837382,46.616268 62.837382,46.616268 L 57.936096,63.097663 H 8.923251 c 0,0 -6.9534255,-13.724495 -7.3519263,-21.190368 C 1.1848999,34.667665 2.6203271,26.858713 6.4726094,20.71693 Z"
       id="path999"
       sodipodi:nodetypes="sssccssszcccss" />
    <path
       style="fill:#e0c900;fill-opacity:1;stroke:#000000;stroke-width:1;stroke-linecap:square;stroke-linejoin:miter;stroke-miterlimit:4;stroke-dasharray:none;stroke-opacity:1"
       d="m 32.52921,21 6.414409,6.191764 6.739266,0.588621 L 48,26 Z"
       id="path2327"
       sodipodi:nodetypes="ccccc" />
    <path
       style="fill:#e0c900;stroke:#000000;stroke-width:1;stroke-linecap:butt;stroke-linejoin:miter;stroke-miterlimit:4;stroke-dasharray:none;stroke-opacity:1"
       d="M 51.450172,25.450172 C 54.07237,17.844154 57.051274,17.414059 60,16.376861 L 56,27 52.623139,27.413517 Z"
       id="path2329"
       sodipodi:nodetypes="ccccc" />
    <path
       style="fill:none;stroke:#000000;stroke-width:1;stroke-linecap:butt;stroke-linejoin:miter;stroke-miterlimit:4;stroke-dasharray:none;stroke-opacity:1"
       d="m 36,29 4,7 1,-3 2,3 2,-3 2,3 2,-3 2,3 2,-3 1,3 5,-6"
       id="path5557"
       sodipodi:nodetypes="ccccccccccc" />
  </g>
</svg>
