<?xml version="1.0" encoding="UTF-8" standalone="no"?>
<!-- Created with Inkscape (http://www.inkscape.org/) -->

<svg
   width="64"
   height="64"
   viewBox="0 0 64 64"
   version="1.1"
   id="svg5"
   inkscape:version="1.4 (86a8ad7, 2024-10-11)"
   sodipodi:docname="worker.svg"
   xmlns:inkscape="http://www.inkscape.org/namespaces/inkscape"
   xmlns:sodipodi="http://sodipodi.sourceforge.net/DTD/sodipodi-0.dtd"
   xmlns="http://www.w3.org/2000/svg"
   xmlns:svg="http://www.w3.org/2000/svg">
  <sodipodi:namedview
     id="namedview7"
     pagecolor="#505050"
     bordercolor="#eeeeee"
     borderopacity="1"
     inkscape:pageshadow="0"
     inkscape:pageopacity="0"
     inkscape:pagecheckerboard="0"
     inkscape:document-units="px"
     showgrid="true"
     inkscape:zoom="11.313708"
     inkscape:cx="27.753941"
     inkscape:cy="17.987029"
     inkscape:window-width="2560"
     inkscape:window-height="1377"
     inkscape:window-x="1912"
     inkscape:window-y="-8"
     inkscape:window-maximized="1"
     inkscape:current-layer="layer1"
     inkscape:showpageshadow="0"
     inkscape:deskcolor="#d1d1d1">
    <inkscape:grid
       type="xygrid"
       id="grid950"
       spacingx="1"
       empspacing="16"
       originx="0"
       originy="0"
       spacingy="1"
       units="px" />
  </sodipodi:namedview>
  <defs
     id="defs2" />
  <g
     inkscape:label="Layer 1"
     inkscape:groupmode="layer"
     id="layer1">
    <path
       d="m 44.677734,9.5605475 c -4.773906,0 -9.546407,2.5594125 -14.320312,7.6796865 4.282409,-0.88815 8.43682,-1.379175 12.609375,-1.478515 V 34.240234 H 46 V 15.759766 c 4.231417,0.09231 8.514504,0.583369 13,1.480468 C 54.226094,12.11996 49.45164,9.5605475 44.677734,9.5605475 Z"
       style="fill:#ffd500;stroke:#000000;stroke-width:2;stroke-linecap:butt;stroke-linejoin:bevel;stroke-dasharray:none;stroke-opacity:1"
       id="path13" />
    <path
       d="m 20.435547,3.2636725 c -5.222059,5.082e-4 -9.455099,4.2248036 -9.455078,9.4355465 0.0077,3.681248 2.160337,7.021885 5.513672,8.55664 V 62.5 h 7.884766 V 31.642578 H 47.494141 V 27.574219 H 24.378907 v -6.31836 c 3.353335,-1.534755 5.505953,-4.875392 5.513671,-8.55664 2.1e-5,-5.211504 -4.234209,-9.4361146 -9.457031,-9.4355465 z"
       style="fill:#ffd500;stroke:#000000;stroke-width:2;stroke-linecap:square;stroke-dasharray:none;stroke-opacity:1"
       id="path12" />
  </g>
</svg>
